<?xml version="1.0" encoding="utf-8"?>
<!-- Generator: Adobe Illustrator 21.1.0, SVG Export Plug-In . SVG Version: 6.00 Build 0)  -->

<svg version="1.1" id="tool42_logo" xmlns="http://www.w3.org/2000/svg" xmlns:xlink="http://www.w3.org/1999/xlink" x="0px" y="0px" width="111.04px" height="48px" viewBox="0 0 111.04 48" enable-background="new 0 0 111.04 48" xml:space="preserve">
<path fill="#58595B" d="M10.188,19.255h3.556v4.266h-3.556v6.37c0,0.36,0.027,0.674,0.079,0.942
	c0.051,0.269,0.144,0.495,0.278,0.681c0.133,0.187,0.313,0.324,0.541,0.418c0.226,0.092,0.521,0.139,0.88,0.139h1.777l-1.784,3.937
	c-0.268,0.082-1.988,0.347-2.267,0.347c-0.855,0-1.638-0.072-2.349-0.217c-0.711-0.146-1.321-0.39-1.831-0.734
	c-0.511-0.346-0.907-0.805-1.191-1.377c-0.284-0.57-0.425-1.283-0.425-2.141v-8.363h-2.35v-4.266h2.597l1.36-5.072h4.683v5.071
	H10.188z"/>
<path fill="#58595B" d="M59.682,19.255v4.266v6.37c0,0.36,0.025,0.674,0.078,0.942c0.051,0.269,0.144,0.495,0.277,0.681
	c0.133,0.187,0.313,0.324,0.541,0.418c0.228,0.092,0.521,0.139,0.881,0.139h1.777l-1.783,3.937
	c-0.269,0.082-1.988,0.347-2.267,0.347c-0.856,0-1.64-0.072-2.351-0.217c-0.711-0.146-1.321-0.39-1.832-0.734
	c-0.51-0.346-0.907-0.805-1.191-1.377c-0.284-0.57-0.425-1.283-0.425-2.141v-8.363l0.247-4.266l1.361-5.072h4.684L59.682,19.255
	L59.682,19.255z"/>
<path fill="#F15A29" d="M90.758,47.309c-1.602,0.924-4.219,0.922-5.817-0.002l-15.817-9.134c-1.6-0.924-2.908-3.19-2.908-5.039
	l-0.002-18.266c-0.002-1.848,1.309-4.115,2.908-5.039l15.823-9.136c1.601-0.924,4.218-0.923,5.817,0l15.816,9.135
	c1.598,0.924,2.908,3.191,2.908,5.039l0.004,18.266c0,1.848-1.309,4.114-2.908,5.038L90.758,47.309z"/>
<path opacity="0.3" enable-background="new" d="M109.488,14.868c0-1.848-1.312-4.115-2.909-5.039L90.762,0.693
	C89.961,0.231,88.907,0,87.853,0v4.468c10.69,0.024,19.353,8.699,19.353,19.396c0,10.698-8.66,19.372-19.353,19.396V48
	c1.054,0,2.106-0.23,2.905-0.691l15.824-9.137c1.601-0.924,2.908-3.189,2.908-5.038L109.488,14.868z"/>
	<path fill="#FFFFFF" d="M101.685,26.124l0.008,0.007c0.021-0.02,0.037-0.04,0.058-0.061l0.029-0.023l-0.004-0.003
		c0.561-0.563,1.014-1.235,1.342-2.035c0.375-0.921,0.563-1.998,0.563-3.226c0-1.23-0.188-2.303-0.563-3.22
		c-0.377-0.917-0.91-1.681-1.599-2.292c-0.688-0.61-1.521-1.066-2.498-1.368c-0.979-0.303-2.063-0.455-3.259-0.455
		s-2.278,0.152-3.252,0.455c-0.975,0.302-1.805,0.758-2.492,1.368c-0.688,0.611-1.221,1.375-1.592,2.292
		c-0.372,0.917-0.559,1.99-0.559,3.22c0,0.002,0.002,0.004,0.002,0.006h-0.002v1.141h4.823v-1.141c0,0,0-0.001,0-0.002
		c0-0.479,0.073-0.897,0.218-1.255c0.146-0.357,0.353-0.655,0.62-0.893c0.269-0.237,0.593-0.416,0.972-0.534
		c0.381-0.118,0.801-0.177,1.269-0.177c0.466,0,0.89,0.059,1.271,0.177c0.383,0.118,0.707,0.296,0.976,0.534
		c0.269,0.238,0.476,0.536,0.622,0.893c0.146,0.359,0.221,0.776,0.221,1.255s-0.072,0.899-0.221,1.258
		c-0.133,0.328-0.319,0.602-0.555,0.828l0.004,0.002l-8.621,7.344v-3.428H85.32v-4.862h-5.053v4.862h-4.243l7.65-15.144h-5.618
		l-7.652,15.144v4.773h9.862v4.787h5.054v-4.787h2.563l-0.016,0.014v4.773h15.813v-4.773H95L101.685,26.124z"/>
	<path fill="#58595B" d="M51.636,23.768c-0.448-1.092-1.082-2.002-1.901-2.728c-0.819-0.726-1.811-1.27-2.974-1.63
		c-1.166-0.361-2.458-0.542-3.881-0.542c-1.423,0-2.713,0.181-3.873,0.542c-1.159,0.36-2.149,0.904-2.968,1.63
		s-1.45,1.636-1.894,2.728c-0.444,1.091-0.665,2.371-0.665,3.833s0.222,2.744,0.665,3.842s1.074,2.01,1.894,2.736
		c0.819,0.728,1.808,1.271,2.968,1.631c1.16,0.359,2.45,0.541,3.873,0.541c1.423,0,2.715-0.181,3.881-0.541
		c1.164-0.361,2.156-0.903,2.974-1.631c0.82-0.728,1.454-1.64,1.901-2.736c0.449-1.098,0.672-2.379,0.672-3.842
		S52.084,24.859,51.636,23.768z M45.31,31.924l-4.98-0.001l-2.491-4.313l2.49-4.314l4.981,0.001l2.491,4.313L45.31,31.924z"/>
	<path fill="#58595B" d="M32.285,23.768c-0.448-1.092-1.082-2.002-1.902-2.728c-0.82-0.726-1.811-1.27-2.975-1.63
		c-1.165-0.361-2.458-0.542-3.881-0.542c-1.423,0-2.713,0.181-3.872,0.542c-1.159,0.36-2.149,0.904-2.968,1.63
		s-1.45,1.636-1.894,2.728c-0.444,1.091-0.666,2.371-0.666,3.833s0.222,2.744,0.666,3.842c0.443,1.098,1.074,2.01,1.894,2.736
		c0.819,0.728,1.809,1.271,2.968,1.631c1.159,0.359,2.449,0.541,3.872,0.541c1.422,0,2.716-0.181,3.881-0.541
		c1.164-0.361,2.155-0.903,2.975-1.631c0.82-0.728,1.454-1.64,1.902-2.736c0.448-1.098,0.672-2.379,0.672-3.842
		S32.733,24.859,32.285,23.768z M26.043,31.924l-4.98-0.001l-2.492-4.313l2.491-4.314l4.981,0.001l2.491,4.313L26.043,31.924z"/>
</svg>
